<?xml version="1.0" encoding="UTF-8"?>
<svg width="195px" height="251px" viewBox="0 0 195 251" version="1.1" xmlns="http://www.w3.org/2000/svg" xmlns:xlink="http://www.w3.org/1999/xlink">
    <!-- Generator: Sketch 49.3 (51167) - http://www.bohemiancoding.com/sketch -->
    <title>fail</title>
    <desc>Created with Sketch.</desc>
    <defs>
        <rect id="path-1" x="0" y="0" width="260" height="260"></rect>
    </defs>
    <g id="Page-1" stroke="none" stroke-width="1" fill="none" fill-rule="evenodd">
        <g id="fail" transform="translate(-28.000000, -4.000000)">
            <mask id="mask-2" fill="white">
                <use xlink:href="#path-1"></use>
            </mask>
            <g id="Mask"></g>
            <g id="Group-19-Copy-4" mask="url(#mask-2)">
                <g transform="translate(171.317456, 178.806142) rotate(293.000000) translate(-171.317456, -178.806142) translate(96.317456, 153.806142)">
                    <path d="M110.927746,29.7366257 C110.927746,29.7366257 114.949535,42.1360296 128.85878,45.6100005 L144.611902,47.4672388 C147.431163,47.8012745 148.62033,44.0734365 146.829899,42.2295596 L134.764531,29.7366257 L110.927746,29.7366257 Z" id="Shape" fill="#00D9FF" fill-rule="evenodd"></path>
                    <path d="M34.8745054,17.7647875 L83.8040495,17.7647875 L110.927746,20.2767357 L134.764531,20.2767357 C140.65692,20.2767357 140.65692,29.7366257 134.764531,29.7366257 L110.927746,29.7366257 L83.8040495,32.2352125 L34.8745054,32.2352125 C32.2690272,32.2352125 29.9708618,30.8456241 28.7015263,28.7612416 L25.8288196,28.7612416 C24.6663755,28.7612416 23.7310756,27.8259417 23.7310756,26.6634976 L23.7310756,23.3365024 C23.7310756,22.1874197 24.6663755,21.2387584 25.8288196,21.2387584 L28.7015263,21.2387584 C29.9708618,19.1543759 32.2690272,17.7647875 34.8745054,17.7647875 Z" id="Shape" fill="#BDFF00" fill-rule="evenodd"></path>
                    <path d="M138.759597,22.8688525 C139.962125,25.674752 138.625983,29.7366257 134.764531,29.7366257 L110.927746,29.7366257 L83.8040495,32.2352125 L34.8745054,32.2352125 C32.2690272,32.2352125 29.9708618,30.8456241 28.7015263,28.7612416 L25.8288196,28.7612416 C24.6663755,28.7612416 23.7310756,27.8259417 23.7310756,26.6634976 L23.7310756,23.3365024 C23.7310756,23.1761653 23.744437,23.0291896 23.7845213,22.8688525 C23.9983041,23.8041523 24.8267126,24.5123079 25.8288196,24.5123079 L28.7015263,24.5123079 C29.9708618,26.5833291 32.2690272,27.9862788 34.8745054,27.9862788 L83.8040495,27.9862788 L110.927746,25.4743306 L134.764531,25.4743306 C136.795467,25.4743306 138.13161,24.3519708 138.759597,22.8688525 Z" id="Shape" fill="#00FFE3" fill-rule="evenodd"></path>
                    <path d="M110.927746,20.2767357 C110.927746,20.2767357 114.949535,7.8639704 128.85878,4.38999949 L144.611902,2.54612262 C147.431163,2.21208695 148.62033,5.92656354 146.829899,7.77044041 L134.764531,20.2767357 L110.927746,20.2767357 Z" id="Shape" fill="#00D9FF" fill-rule="evenodd"></path>
                    <path d="M110.927746,20.2767357 C110.927746,20.2767357 111.515648,18.4729431 112.998767,16.0545249 L138.839766,16.0545249 L134.764531,20.2767357 L110.927746,20.2767357 Z" id="Shape" fill="#0089FF" fill-rule="evenodd"></path>
                    <path d="M110.927746,29.7366257 C110.927746,29.7366257 111.515648,31.5404183 112.998767,33.9588365 L138.839766,33.9588365 L134.764531,29.7366257 L110.927746,29.7366257 Z" id="Shape" fill="#0089FF" fill-rule="evenodd"></path>
                    <rect id="Rectangle-path" fill="#FFFFFF" fill-rule="evenodd" x="34.3400483" y="20.6642171" width="47.4865101" height="4.1687651" rx="1.26246575"></rect>
                    <path d="M34.8745054,15.7338507 L83.8040495,15.7338507 L83.9911095,15.7472121 L110.927746,18.2457989 L134.764531,18.2457989 C137.864382,18.2457989 139.855234,20.0495914 140.737088,22.3611182 C141.057762,23.2028881 141.2181,24.1114651 141.2181,25.0066807 C141.2181,25.9018963 141.057762,26.7971119 140.737088,27.6522432 C139.855234,29.96377 137.864382,31.7675626 134.764531,31.7675626 L110.927746,31.7675626 L83.9911095,34.2527879 L83.8040495,34.2661493 L34.8745054,34.2661493 C33.2310499,34.2661493 31.6944858,33.8385837 30.3583432,33.0903438 C29.3161519,32.502441 28.3942135,31.7274783 27.659335,30.7921784 L25.8288196,30.7921784 C24.6930983,30.7921784 23.6642685,30.3378899 22.9160286,29.58965 L22.9026671,29.58965 C22.1544273,28.8414101 21.7001388,27.7992189 21.7001388,26.6634976 L21.7001388,23.3365024 C21.7001388,22.2007811 22.1544273,21.1719513 22.9026671,20.4237114 L22.9160286,20.4237114 C23.6642685,19.6754715 24.6930983,19.2078216 25.8288196,19.2078216 L27.659335,19.2078216 C28.3942135,18.2858831 29.3161519,17.497559 30.3583432,16.9230176 C31.6944858,16.1614163 33.2310499,15.7338507 34.8745054,15.7338507 Z M83.7906881,19.7957243 L34.8745054,19.7957243 C33.9525669,19.7957243 33.0840742,20.03623 32.3358343,20.4637957 C31.5475101,20.9047228 30.8928002,21.5327098 30.4251503,22.2943111 L29.8238861,23.2696953 L28.7015263,23.2696953 L25.8288196,23.2696953 C25.8020967,23.2696953 25.7887353,23.2830567 25.7753739,23.2830567 L25.7753739,23.2964181 C25.7620124,23.3097795 25.7620124,23.323141 25.7620124,23.3365024 L25.7620124,26.6634976 C25.7620124,26.676859 25.7620124,26.7035819 25.7753739,26.7169433 C25.7887353,26.7303047 25.8020967,26.7303047 25.8288196,26.7303047 L28.7015263,26.7303047 L29.8238861,26.7303047 L30.4251503,27.7056889 C30.8928002,28.4672902 31.5475101,29.1086387 32.3358343,29.5495658 C33.0840742,29.96377 33.9525669,30.2042757 34.8745054,30.2042757 L83.7906881,30.2042757 L110.740686,27.7190503 L110.927746,27.7056889 L134.764531,27.7056889 C135.900252,27.7056889 136.63513,27.050979 136.942443,26.2225705 C137.089419,25.8484506 137.156226,25.4342464 137.156226,25.0066807 C137.156226,24.5791151 137.089419,24.1515494 136.942443,23.7774295 C136.63513,22.949021 135.900252,22.3076725 134.764531,22.3076725 L110.927746,22.3076725 L110.740686,22.2943111 L83.7906881,19.7957243 Z" id="Shape" fill="#0024FF" fill-rule="nonzero"></path>
                    <path d="M23.7310756,22.9757439 C24.8534354,22.9757439 25.7620124,23.8843209 25.7620124,25.0066807 C25.7620124,26.1290405 24.8534354,27.0376176 23.7310756,27.0376176 L2.70019014,27.0376176 C1.57783031,27.0376176 0.669253302,26.1290405 0.669253302,25.0066807 C0.669253302,23.8843209 1.57783031,22.9757439 2.70019014,22.9757439 L23.7310756,22.9757439 Z" id="Shape" fill="#0024FF" fill-rule="nonzero"></path>
                    <path d="M109.0037,19.6220258 C109.017062,19.5819415 113.372887,6.16706922 128.364407,2.42586978 L128.618274,2.37242407 L144.384758,0.528547202 C145.921322,0.34148723 147.204019,0.862582867 148.139319,1.77115987 C148.566884,2.1853641 148.927643,2.69309831 149.18151,3.25427823 C149.435377,3.78873529 149.609075,4.36327663 149.675883,4.93781798 C149.83622,6.42093633 149.422016,8.01094609 148.286294,9.17339021 L136.220926,21.6796855 L135.619662,22.3076725 L134.764531,22.3076725 L110.927746,22.3076725 L108.095123,22.3076725 L109.0037,19.6220258 Z M129.2329,6.39421347 C120.441081,8.62557171 115.978365,14.6916594 114.054319,18.2457989 L133.909399,18.2457989 L145.373503,6.36749062 C145.600648,6.12698494 145.680816,5.76622642 145.640732,5.40546791 C145.614009,5.24513079 145.573925,5.0981551 145.520479,4.96454083 C145.467033,4.85764942 145.400226,4.76411943 145.333419,4.68395087 C145.226528,4.59042088 145.052829,4.53697518 144.839046,4.55033661 L129.2329,6.39421347 Z" id="Shape" fill="#0024FF" fill-rule="nonzero"></path>
                    <path d="M114.054319,31.7675626 C115.978365,35.3083406 120.441081,41.3744283 129.2329,43.619148 L144.839046,45.4496634 C145.052829,45.4763862 145.226528,45.4229405 145.333419,45.3160491 C145.400226,45.2358806 145.467033,45.1423506 145.520479,45.0354592 C145.573925,44.9152063 145.614009,44.7682306 145.640732,44.5945321 C145.680816,44.2337736 145.600648,43.8730151 145.373503,43.6325094 L133.909399,31.7675626 L114.054319,31.7675626 Z M128.364407,47.5741302 C113.372887,43.8329308 109.017062,30.4180585 109.0037,30.3779742 L108.095123,27.7056889 L110.927746,27.7056889 L134.764531,27.7056889 L135.619662,27.7056889 L136.220926,28.3203145 L148.286294,40.8266098 C149.422016,42.0024153 149.83622,43.5790637 149.675883,45.062182 C149.609075,45.6367234 149.435377,46.2112647 149.18151,46.7457218 C148.927643,47.3069017 148.566884,47.8146359 148.139319,48.2288401 C147.204019,49.1374171 145.921322,49.6585128 144.384758,49.4848142 L128.618274,47.6275759 L128.364407,47.5741302 Z" id="Shape" fill="#0024FF" fill-rule="nonzero"></path>
                </g>
            </g>
            <g id="Group-20" mask="url(#mask-2)">
                <g transform="translate(28.000000, 33.000000)">
                    <path d="M68.6073796,183.583792 L44.596896,183.583792 C21.3346523,183.583792 2.48167943,143.031862 2.48167943,93.0066807 C2.48167943,42.9814996 21.3346523,2.41620844 44.596896,2.41620844 L68.6073796,2.41620844 C93.9807287,2.41620844 114.543964,42.9814996 114.543964,93.0066807 C114.543964,143.031862 93.9807287,183.583792 68.6073796,183.583792 Z" id="Shape" fill="#B6EBFF" fill-rule="evenodd"></path>
                    <ellipse id="Oval" fill="#00D9FF" fill-rule="evenodd" cx="68.6073796" cy="93.0066807" rx="45.9365846" ry="90.5771108"></ellipse>
                    <ellipse id="Oval" fill="#FFFFFF" fill-rule="evenodd" cx="69.9836066" cy="93.0066807" rx="36.9710674" ry="75.6123131"></ellipse>
                    <ellipse id="Oval" fill="#00D9FF" fill-rule="evenodd" cx="74.7001901" cy="93.0066807" rx="16.0604348" ry="37.2917416"></ellipse>
                    <path d="M68.6073796,185.614728 L44.596896,185.614728 C32.1039622,185.614728 20.9338095,175.019117 12.9703993,157.90313 C5.23413331,141.254792 0.450742587,118.313223 0.450742587,93.0066807 C0.450742587,67.7001388 5.23413331,44.7452079 12.9703993,28.0968703 C20.9338095,10.9808829 32.1039622,0.385271597 44.596896,0.385271597 L68.6073796,0.385271597 C82.1157819,0.385271597 94.2345958,10.95416 102.8928,28.0434246 C111.350583,44.7051236 116.574901,67.6734159 116.574901,93.0066807 C116.574901,118.326584 111.350583,141.308238 102.8928,157.969937 C94.2345958,175.04584 82.1157819,185.614728 68.6073796,185.614728 Z M44.596896,181.552855 L68.6073796,181.552855 C80.458965,181.552855 91.3218048,171.839098 99.2718536,156.139421 C107.449047,140.025541 112.513027,117.698597 112.513027,93.0066807 C112.513027,68.3014029 107.449047,45.9878205 99.2718536,29.8605787 C91.3218048,14.1609024 80.458965,4.44714528 68.6073796,4.44714528 L44.596896,4.44714528 C33.8275862,4.44714528 23.9401305,14.1341796 16.658153,29.7937715 C9.1490313,45.9343748 4.51261627,68.2746801 4.51261627,93.0066807 C4.51261627,117.72532 9.1490313,140.065625 16.658153,156.206228 C23.9401305,171.86582 33.8275862,181.552855 44.596896,181.552855 Z" id="Shape" fill="#0024FF" fill-rule="nonzero"></path>
                    <path d="M64.7726502,185.614728 C52.2797163,185.614728 41.1095637,175.019117 33.1595149,157.90313 C25.4098875,141.254792 20.6264967,118.313223 20.6264967,93.0066807 C20.6264967,67.7001388 25.4098875,44.7452079 33.1595149,28.0968703 C41.1095637,10.9808829 52.2797163,0.385271597 64.7726502,0.385271597 L64.7726502,4.44714528 C54.0033404,4.44714528 44.1158847,14.1341796 36.8339072,29.7937715 C29.3381469,45.9343748 24.6883704,68.2746801 24.6883704,93.0066807 C24.6883704,117.72532 29.3381469,140.065625 36.8339072,156.206228 C44.1158847,171.86582 54.0033404,181.552855 64.7726502,181.552855 L64.7726502,185.614728 Z" id="Shape" fill="#0024FF" fill-rule="nonzero"></path>
                    <path d="M87.0862326,109.240814 C87.3133768,108.145177 88.3956524,107.450383 89.4912894,107.677527 C90.5869264,107.918033 91.2817205,108.986947 91.0545763,110.082584 C89.6516265,116.576237 87.4870754,122.054422 84.8014286,125.902513 C81.9688062,129.977748 78.5081967,132.329359 74.7001901,132.329359 C69.3823424,132.329359 64.7192045,127.679583 61.4857392,120.170461 C58.4794183,113.182435 56.6088185,103.575569 56.6088185,93.0066807 C56.6088185,82.4244309 58.4794183,72.8175651 61.4857392,65.829539 C64.7192045,58.3204173 69.3823424,53.6706408 74.7001901,53.6706408 C78.5081967,53.6706408 81.9688062,56.0222519 84.8014286,60.097487 C87.4870754,63.9455779 89.6516265,69.4371242 91.0545763,75.9174161 C91.2817205,77.0130531 90.5869264,78.0953286 89.4912894,78.3224729 C88.3956524,78.5629786 87.3133768,77.854823 87.0862326,76.759186 C85.8035356,70.8133511 83.8527674,65.8429005 81.461072,62.4090138 C79.4034123,59.4561385 77.0785241,57.7325145 74.7001901,57.7325145 C71.1594121,57.7325145 67.7923326,61.4469911 65.2135773,67.4329102 C62.4076777,73.939925 60.6840537,82.9856108 60.6840537,93.0066807 C60.6840537,103.027751 62.4076777,112.060075 65.2135773,118.56709 C67.7923326,124.56637 71.1594121,128.267485 74.7001901,128.267485 C77.0785241,128.267485 79.4034123,126.557223 81.461072,123.590986 C83.8527674,120.170461 85.8035356,115.20001 87.0862326,109.240814 Z" id="Shape" fill="#0024FF" fill-rule="nonzero"></path>
                </g>
            </g>
            <g id="Group-19" mask="url(#mask-2)">
                <g transform="translate(144.820227, 45.401535) rotate(-14.000000) translate(-144.820227, -45.401535) translate(69.820227, 20.401535)">
                    <path d="M110.927746,29.7366257 C110.927746,29.7366257 114.949535,42.1360296 128.85878,45.6100005 L144.611902,47.4672388 C147.431163,47.8012745 148.62033,44.0734365 146.829899,42.2295596 L134.764531,29.7366257 L110.927746,29.7366257 Z" id="Shape" fill="#00D9FF" fill-rule="evenodd"></path>
                    <path d="M34.8745054,17.7647875 L83.8040495,17.7647875 L110.927746,20.2767357 L134.764531,20.2767357 C140.65692,20.2767357 140.65692,29.7366257 134.764531,29.7366257 L110.927746,29.7366257 L83.8040495,32.2352125 L34.8745054,32.2352125 C32.2690272,32.2352125 29.9708618,30.8456241 28.7015263,28.7612416 L25.8288196,28.7612416 C24.6663755,28.7612416 23.7310756,27.8259417 23.7310756,26.6634976 L23.7310756,23.3365024 C23.7310756,22.1874197 24.6663755,21.2387584 25.8288196,21.2387584 L28.7015263,21.2387584 C29.9708618,19.1543759 32.2690272,17.7647875 34.8745054,17.7647875 Z" id="Shape" fill="#BDFF00" fill-rule="evenodd"></path>
                    <path d="M138.759597,22.8688525 C139.962125,25.674752 138.625983,29.7366257 134.764531,29.7366257 L110.927746,29.7366257 L83.8040495,32.2352125 L34.8745054,32.2352125 C32.2690272,32.2352125 29.9708618,30.8456241 28.7015263,28.7612416 L25.8288196,28.7612416 C24.6663755,28.7612416 23.7310756,27.8259417 23.7310756,26.6634976 L23.7310756,23.3365024 C23.7310756,23.1761653 23.744437,23.0291896 23.7845213,22.8688525 C23.9983041,23.8041523 24.8267126,24.5123079 25.8288196,24.5123079 L28.7015263,24.5123079 C29.9708618,26.5833291 32.2690272,27.9862788 34.8745054,27.9862788 L83.8040495,27.9862788 L110.927746,25.4743306 L134.764531,25.4743306 C136.795467,25.4743306 138.13161,24.3519708 138.759597,22.8688525 Z" id="Shape" fill="#00FFE3" fill-rule="evenodd"></path>
                    <path d="M110.927746,20.2767357 C110.927746,20.2767357 114.949535,7.8639704 128.85878,4.38999949 L144.611902,2.54612262 C147.431163,2.21208695 148.62033,5.92656354 146.829899,7.77044041 L134.764531,20.2767357 L110.927746,20.2767357 Z" id="Shape" fill="#00D9FF" fill-rule="evenodd"></path>
                    <path d="M110.927746,20.2767357 C110.927746,20.2767357 111.515648,18.4729431 112.998767,16.0545249 L138.839766,16.0545249 L134.764531,20.2767357 L110.927746,20.2767357 Z" id="Shape" fill="#0089FF" fill-rule="evenodd"></path>
                    <path d="M110.927746,29.7366257 C110.927746,29.7366257 111.515648,31.5404183 112.998767,33.9588365 L138.839766,33.9588365 L134.764531,29.7366257 L110.927746,29.7366257 Z" id="Shape" fill="#0089FF" fill-rule="evenodd"></path>
                    <rect id="Rectangle-path" fill="#FFFFFF" fill-rule="evenodd" x="34.3400483" y="20.6642171" width="47.4865101" height="4.1687651" rx="1.26246575"></rect>
                    <path d="M34.8745054,15.7338507 L83.8040495,15.7338507 L83.9911095,15.7472121 L110.927746,18.2457989 L134.764531,18.2457989 C137.864382,18.2457989 139.855234,20.0495914 140.737088,22.3611182 C141.057762,23.2028881 141.2181,24.1114651 141.2181,25.0066807 C141.2181,25.9018963 141.057762,26.7971119 140.737088,27.6522432 C139.855234,29.96377 137.864382,31.7675626 134.764531,31.7675626 L110.927746,31.7675626 L83.9911095,34.2527879 L83.8040495,34.2661493 L34.8745054,34.2661493 C33.2310499,34.2661493 31.6944858,33.8385837 30.3583432,33.0903438 C29.3161519,32.502441 28.3942135,31.7274783 27.659335,30.7921784 L25.8288196,30.7921784 C24.6930983,30.7921784 23.6642685,30.3378899 22.9160286,29.58965 L22.9026671,29.58965 C22.1544273,28.8414101 21.7001388,27.7992189 21.7001388,26.6634976 L21.7001388,23.3365024 C21.7001388,22.2007811 22.1544273,21.1719513 22.9026671,20.4237114 L22.9160286,20.4237114 C23.6642685,19.6754715 24.6930983,19.2078216 25.8288196,19.2078216 L27.659335,19.2078216 C28.3942135,18.2858831 29.3161519,17.497559 30.3583432,16.9230176 C31.6944858,16.1614163 33.2310499,15.7338507 34.8745054,15.7338507 Z M83.7906881,19.7957243 L34.8745054,19.7957243 C33.9525669,19.7957243 33.0840742,20.03623 32.3358343,20.4637957 C31.5475101,20.9047228 30.8928002,21.5327098 30.4251503,22.2943111 L29.8238861,23.2696953 L28.7015263,23.2696953 L25.8288196,23.2696953 C25.8020967,23.2696953 25.7887353,23.2830567 25.7753739,23.2830567 L25.7753739,23.2964181 C25.7620124,23.3097795 25.7620124,23.323141 25.7620124,23.3365024 L25.7620124,26.6634976 C25.7620124,26.676859 25.7620124,26.7035819 25.7753739,26.7169433 C25.7887353,26.7303047 25.8020967,26.7303047 25.8288196,26.7303047 L28.7015263,26.7303047 L29.8238861,26.7303047 L30.4251503,27.7056889 C30.8928002,28.4672902 31.5475101,29.1086387 32.3358343,29.5495658 C33.0840742,29.96377 33.9525669,30.2042757 34.8745054,30.2042757 L83.7906881,30.2042757 L110.740686,27.7190503 L110.927746,27.7056889 L134.764531,27.7056889 C135.900252,27.7056889 136.63513,27.050979 136.942443,26.2225705 C137.089419,25.8484506 137.156226,25.4342464 137.156226,25.0066807 C137.156226,24.5791151 137.089419,24.1515494 136.942443,23.7774295 C136.63513,22.949021 135.900252,22.3076725 134.764531,22.3076725 L110.927746,22.3076725 L110.740686,22.2943111 L83.7906881,19.7957243 Z" id="Shape" fill="#0024FF" fill-rule="nonzero"></path>
                    <path d="M23.7310756,22.9757439 C24.8534354,22.9757439 25.7620124,23.8843209 25.7620124,25.0066807 C25.7620124,26.1290405 24.8534354,27.0376176 23.7310756,27.0376176 L2.70019014,27.0376176 C1.57783031,27.0376176 0.669253302,26.1290405 0.669253302,25.0066807 C0.669253302,23.8843209 1.57783031,22.9757439 2.70019014,22.9757439 L23.7310756,22.9757439 Z" id="Shape" fill="#0024FF" fill-rule="nonzero"></path>
                    <path d="M109.0037,19.6220258 C109.017062,19.5819415 113.372887,6.16706922 128.364407,2.42586978 L128.618274,2.37242407 L144.384758,0.528547202 C145.921322,0.34148723 147.204019,0.862582867 148.139319,1.77115987 C148.566884,2.1853641 148.927643,2.69309831 149.18151,3.25427823 C149.435377,3.78873529 149.609075,4.36327663 149.675883,4.93781798 C149.83622,6.42093633 149.422016,8.01094609 148.286294,9.17339021 L136.220926,21.6796855 L135.619662,22.3076725 L134.764531,22.3076725 L110.927746,22.3076725 L108.095123,22.3076725 L109.0037,19.6220258 Z M129.2329,6.39421347 C120.441081,8.62557171 115.978365,14.6916594 114.054319,18.2457989 L133.909399,18.2457989 L145.373503,6.36749062 C145.600648,6.12698494 145.680816,5.76622642 145.640732,5.40546791 C145.614009,5.24513079 145.573925,5.0981551 145.520479,4.96454083 C145.467033,4.85764942 145.400226,4.76411943 145.333419,4.68395087 C145.226528,4.59042088 145.052829,4.53697518 144.839046,4.55033661 L129.2329,6.39421347 Z" id="Shape" fill="#0024FF" fill-rule="nonzero"></path>
                    <path d="M114.054319,31.7675626 C115.978365,35.3083406 120.441081,41.3744283 129.2329,43.619148 L144.839046,45.4496634 C145.052829,45.4763862 145.226528,45.4229405 145.333419,45.3160491 C145.400226,45.2358806 145.467033,45.1423506 145.520479,45.0354592 C145.573925,44.9152063 145.614009,44.7682306 145.640732,44.5945321 C145.680816,44.2337736 145.600648,43.8730151 145.373503,43.6325094 L133.909399,31.7675626 L114.054319,31.7675626 Z M128.364407,47.5741302 C113.372887,43.8329308 109.017062,30.4180585 109.0037,30.3779742 L108.095123,27.7056889 L110.927746,27.7056889 L134.764531,27.7056889 L135.619662,27.7056889 L136.220926,28.3203145 L148.286294,40.8266098 C149.422016,42.0024153 149.83622,43.5790637 149.675883,45.062182 C149.609075,45.6367234 149.435377,46.2112647 149.18151,46.7457218 C148.927643,47.3069017 148.566884,47.8146359 148.139319,48.2288401 C147.204019,49.1374171 145.921322,49.6585128 144.384758,49.4848142 L128.618274,47.6275759 L128.364407,47.5741302 Z" id="Shape" fill="#0024FF" fill-rule="nonzero"></path>
                </g>
            </g>
            <g id="Group-19" mask="url(#mask-2)">
                <g transform="translate(124.082873, 200.316944) rotate(-46.000000) translate(-124.082873, -200.316944) translate(49.082873, 175.316944)">
                    <path d="M110.927746,29.7366257 C110.927746,29.7366257 114.949535,42.1360296 128.85878,45.6100005 L144.611902,47.4672388 C147.431163,47.8012745 148.62033,44.0734365 146.829899,42.2295596 L134.764531,29.7366257 L110.927746,29.7366257 Z" id="Shape" fill="#00D9FF" fill-rule="evenodd"></path>
                    <path d="M34.8745054,17.7647875 L83.8040495,17.7647875 L110.927746,20.2767357 L134.764531,20.2767357 C140.65692,20.2767357 140.65692,29.7366257 134.764531,29.7366257 L110.927746,29.7366257 L83.8040495,32.2352125 L34.8745054,32.2352125 C32.2690272,32.2352125 29.9708618,30.8456241 28.7015263,28.7612416 L25.8288196,28.7612416 C24.6663755,28.7612416 23.7310756,27.8259417 23.7310756,26.6634976 L23.7310756,23.3365024 C23.7310756,22.1874197 24.6663755,21.2387584 25.8288196,21.2387584 L28.7015263,21.2387584 C29.9708618,19.1543759 32.2690272,17.7647875 34.8745054,17.7647875 Z" id="Shape" fill="#BDFF00" fill-rule="evenodd"></path>
                    <path d="M138.759597,22.8688525 C139.962125,25.674752 138.625983,29.7366257 134.764531,29.7366257 L110.927746,29.7366257 L83.8040495,32.2352125 L34.8745054,32.2352125 C32.2690272,32.2352125 29.9708618,30.8456241 28.7015263,28.7612416 L25.8288196,28.7612416 C24.6663755,28.7612416 23.7310756,27.8259417 23.7310756,26.6634976 L23.7310756,23.3365024 C23.7310756,23.1761653 23.744437,23.0291896 23.7845213,22.8688525 C23.9983041,23.8041523 24.8267126,24.5123079 25.8288196,24.5123079 L28.7015263,24.5123079 C29.9708618,26.5833291 32.2690272,27.9862788 34.8745054,27.9862788 L83.8040495,27.9862788 L110.927746,25.4743306 L134.764531,25.4743306 C136.795467,25.4743306 138.13161,24.3519708 138.759597,22.8688525 Z" id="Shape" fill="#00FFE3" fill-rule="evenodd"></path>
                    <path d="M110.927746,20.2767357 C110.927746,20.2767357 114.949535,7.8639704 128.85878,4.38999949 L144.611902,2.54612262 C147.431163,2.21208695 148.62033,5.92656354 146.829899,7.77044041 L134.764531,20.2767357 L110.927746,20.2767357 Z" id="Shape" fill="#00D9FF" fill-rule="evenodd"></path>
                    <path d="M110.927746,20.2767357 C110.927746,20.2767357 111.515648,18.4729431 112.998767,16.0545249 L138.839766,16.0545249 L134.764531,20.2767357 L110.927746,20.2767357 Z" id="Shape" fill="#0089FF" fill-rule="evenodd"></path>
                    <path d="M110.927746,29.7366257 C110.927746,29.7366257 111.515648,31.5404183 112.998767,33.9588365 L138.839766,33.9588365 L134.764531,29.7366257 L110.927746,29.7366257 Z" id="Shape" fill="#0089FF" fill-rule="evenodd"></path>
                    <rect id="Rectangle-path" fill="#FFFFFF" fill-rule="evenodd" x="34.3400483" y="20.6642171" width="47.4865101" height="4.1687651" rx="1.26246575"></rect>
                    <path d="M34.8745054,15.7338507 L83.8040495,15.7338507 L83.9911095,15.7472121 L110.927746,18.2457989 L134.764531,18.2457989 C137.864382,18.2457989 139.855234,20.0495914 140.737088,22.3611182 C141.057762,23.2028881 141.2181,24.1114651 141.2181,25.0066807 C141.2181,25.9018963 141.057762,26.7971119 140.737088,27.6522432 C139.855234,29.96377 137.864382,31.7675626 134.764531,31.7675626 L110.927746,31.7675626 L83.9911095,34.2527879 L83.8040495,34.2661493 L34.8745054,34.2661493 C33.2310499,34.2661493 31.6944858,33.8385837 30.3583432,33.0903438 C29.3161519,32.502441 28.3942135,31.7274783 27.659335,30.7921784 L25.8288196,30.7921784 C24.6930983,30.7921784 23.6642685,30.3378899 22.9160286,29.58965 L22.9026671,29.58965 C22.1544273,28.8414101 21.7001388,27.7992189 21.7001388,26.6634976 L21.7001388,23.3365024 C21.7001388,22.2007811 22.1544273,21.1719513 22.9026671,20.4237114 L22.9160286,20.4237114 C23.6642685,19.6754715 24.6930983,19.2078216 25.8288196,19.2078216 L27.659335,19.2078216 C28.3942135,18.2858831 29.3161519,17.497559 30.3583432,16.9230176 C31.6944858,16.1614163 33.2310499,15.7338507 34.8745054,15.7338507 Z M83.7906881,19.7957243 L34.8745054,19.7957243 C33.9525669,19.7957243 33.0840742,20.03623 32.3358343,20.4637957 C31.5475101,20.9047228 30.8928002,21.5327098 30.4251503,22.2943111 L29.8238861,23.2696953 L28.7015263,23.2696953 L25.8288196,23.2696953 C25.8020967,23.2696953 25.7887353,23.2830567 25.7753739,23.2830567 L25.7753739,23.2964181 C25.7620124,23.3097795 25.7620124,23.323141 25.7620124,23.3365024 L25.7620124,26.6634976 C25.7620124,26.676859 25.7620124,26.7035819 25.7753739,26.7169433 C25.7887353,26.7303047 25.8020967,26.7303047 25.8288196,26.7303047 L28.7015263,26.7303047 L29.8238861,26.7303047 L30.4251503,27.7056889 C30.8928002,28.4672902 31.5475101,29.1086387 32.3358343,29.5495658 C33.0840742,29.96377 33.9525669,30.2042757 34.8745054,30.2042757 L83.7906881,30.2042757 L110.740686,27.7190503 L110.927746,27.7056889 L134.764531,27.7056889 C135.900252,27.7056889 136.63513,27.050979 136.942443,26.2225705 C137.089419,25.8484506 137.156226,25.4342464 137.156226,25.0066807 C137.156226,24.5791151 137.089419,24.1515494 136.942443,23.7774295 C136.63513,22.949021 135.900252,22.3076725 134.764531,22.3076725 L110.927746,22.3076725 L110.740686,22.2943111 L83.7906881,19.7957243 Z" id="Shape" fill="#0024FF" fill-rule="nonzero"></path>
                    <path d="M23.7310756,22.9757439 C24.8534354,22.9757439 25.7620124,23.8843209 25.7620124,25.0066807 C25.7620124,26.1290405 24.8534354,27.0376176 23.7310756,27.0376176 L2.70019014,27.0376176 C1.57783031,27.0376176 0.669253302,26.1290405 0.669253302,25.0066807 C0.669253302,23.8843209 1.57783031,22.9757439 2.70019014,22.9757439 L23.7310756,22.9757439 Z" id="Shape" fill="#0024FF" fill-rule="nonzero"></path>
                    <path d="M109.0037,19.6220258 C109.017062,19.5819415 113.372887,6.16706922 128.364407,2.42586978 L128.618274,2.37242407 L144.384758,0.528547202 C145.921322,0.34148723 147.204019,0.862582867 148.139319,1.77115987 C148.566884,2.1853641 148.927643,2.69309831 149.18151,3.25427823 C149.435377,3.78873529 149.609075,4.36327663 149.675883,4.93781798 C149.83622,6.42093633 149.422016,8.01094609 148.286294,9.17339021 L136.220926,21.6796855 L135.619662,22.3076725 L134.764531,22.3076725 L110.927746,22.3076725 L108.095123,22.3076725 L109.0037,19.6220258 Z M129.2329,6.39421347 C120.441081,8.62557171 115.978365,14.6916594 114.054319,18.2457989 L133.909399,18.2457989 L145.373503,6.36749062 C145.600648,6.12698494 145.680816,5.76622642 145.640732,5.40546791 C145.614009,5.24513079 145.573925,5.0981551 145.520479,4.96454083 C145.467033,4.85764942 145.400226,4.76411943 145.333419,4.68395087 C145.226528,4.59042088 145.052829,4.53697518 144.839046,4.55033661 L129.2329,6.39421347 Z" id="Shape" fill="#0024FF" fill-rule="nonzero"></path>
                    <path d="M114.054319,31.7675626 C115.978365,35.3083406 120.441081,41.3744283 129.2329,43.619148 L144.839046,45.4496634 C145.052829,45.4763862 145.226528,45.4229405 145.333419,45.3160491 C145.400226,45.2358806 145.467033,45.1423506 145.520479,45.0354592 C145.573925,44.9152063 145.614009,44.7682306 145.640732,44.5945321 C145.680816,44.2337736 145.600648,43.8730151 145.373503,43.6325094 L133.909399,31.7675626 L114.054319,31.7675626 Z M128.364407,47.5741302 C113.372887,43.8329308 109.017062,30.4180585 109.0037,30.3779742 L108.095123,27.7056889 L110.927746,27.7056889 L134.764531,27.7056889 L135.619662,27.7056889 L136.220926,28.3203145 L148.286294,40.8266098 C149.422016,42.0024153 149.83622,43.5790637 149.675883,45.062182 C149.609075,45.6367234 149.435377,46.2112647 149.18151,46.7457218 C148.927643,47.3069017 148.566884,47.8146359 148.139319,48.2288401 C147.204019,49.1374171 145.921322,49.6585128 144.384758,49.4848142 L128.618274,47.6275759 L128.364407,47.5741302 Z" id="Shape" fill="#0024FF" fill-rule="nonzero"></path>
                </g>
            </g>
        </g>
    </g>
</svg>