<?xml version="1.0" encoding="UTF-8"?>
<svg width="238px" height="186px" viewBox="0 0 238 186" version="1.1" xmlns="http://www.w3.org/2000/svg" xmlns:xlink="http://www.w3.org/1999/xlink">
    <!-- Generator: Sketch 49.3 (51167) - http://www.bohemiancoding.com/sketch -->
    <title>success</title>
    <desc>Created with Sketch.</desc>
    <defs></defs>
    <g id="Page-1" stroke="none" stroke-width="1" fill="none" fill-rule="evenodd">
        <g id="success" transform="translate(-11.000000, -37.000000)">
            <rect id="Rectangle-path" x="0" y="0" width="260" height="260"></rect>
            <path d="M79.6073796,220.583792 L55.596896,220.583792 C32.3346523,220.583792 13.4816794,180.031862 13.4816794,130.006681 C13.4816794,79.9814996 32.3346523,39.4162084 55.596896,39.4162084 L79.6073796,39.4162084 C104.980729,39.4162084 125.543964,79.9814996 125.543964,130.006681 C125.543964,180.031862 104.980729,220.583792 79.6073796,220.583792 Z" id="Shape" fill="#B6EBFF"></path>
            <ellipse id="Oval" fill="#00D9FF" cx="79.6073796" cy="130.006681" rx="45.9365846" ry="90.5771108"></ellipse>
            <ellipse id="Oval" fill="#FFFFFF" cx="80.9836066" cy="130.006681" rx="36.9710674" ry="75.6123131"></ellipse>
            <ellipse id="Oval" fill="#00D9FF" cx="85.7001901" cy="130.006681" rx="16.0604348" ry="37.2917416"></ellipse>
            <path d="M79.6073796,222.614728 L55.596896,222.614728 C43.1039622,222.614728 31.9338095,212.019117 23.9703993,194.90313 C16.2341333,178.254792 11.4507426,155.313223 11.4507426,130.006681 C11.4507426,104.700139 16.2341333,81.7452079 23.9703993,65.0968703 C31.9338095,47.9808829 43.1039622,37.3852716 55.596896,37.3852716 L79.6073796,37.3852716 C93.1157819,37.3852716 105.234596,47.95416 113.8928,65.0434246 C122.350583,81.7051236 127.574901,104.673416 127.574901,130.006681 C127.574901,155.326584 122.350583,178.308238 113.8928,194.969937 C105.234596,212.04584 93.1157819,222.614728 79.6073796,222.614728 Z M55.596896,218.552855 L79.6073796,218.552855 C91.458965,218.552855 102.321805,208.839098 110.271854,193.139421 C118.449047,177.025541 123.513027,154.698597 123.513027,130.006681 C123.513027,105.301403 118.449047,82.9878205 110.271854,66.8605787 C102.321805,51.1609024 91.458965,41.4471453 79.6073796,41.4471453 L55.596896,41.4471453 C44.8275862,41.4471453 34.9401305,51.1341796 27.658153,66.7937715 C20.1490313,82.9343748 15.5126163,105.27468 15.5126163,130.006681 C15.5126163,154.72532 20.1490313,177.065625 27.658153,193.206228 C34.9401305,208.86582 44.8275862,218.552855 55.596896,218.552855 Z" id="Shape" fill="#0024FF" fill-rule="nonzero"></path>
            <path d="M75.7726502,222.614728 C63.2797163,222.614728 52.1095637,212.019117 44.1595149,194.90313 C36.4098875,178.254792 31.6264967,155.313223 31.6264967,130.006681 C31.6264967,104.700139 36.4098875,81.7452079 44.1595149,65.0968703 C52.1095637,47.9808829 63.2797163,37.3852716 75.7726502,37.3852716 L75.7726502,41.4471453 C65.0033404,41.4471453 55.1158847,51.1341796 47.8339072,66.7937715 C40.3381469,82.9343748 35.6883704,105.27468 35.6883704,130.006681 C35.6883704,154.72532 40.3381469,177.065625 47.8339072,193.206228 C55.1158847,208.86582 65.0033404,218.552855 75.7726502,218.552855 L75.7726502,222.614728 Z" id="Shape" fill="#0024FF" fill-rule="nonzero"></path>
            <path d="M117.874505,122.764788 L166.80405,122.764788 L193.927746,125.276736 L217.764531,125.276736 C223.65692,125.276736 223.65692,134.736626 217.764531,134.736626 L193.927746,134.736626 L166.80405,137.235212 L117.874505,137.235212 C115.269027,137.235212 112.970862,135.845624 111.701526,133.761242 L108.82882,133.761242 C107.666375,133.761242 106.731076,132.825942 106.731076,131.663498 L106.731076,128.336502 C106.731076,127.18742 107.666375,126.238758 108.82882,126.238758 L111.701526,126.238758 C112.970862,124.154376 115.269027,122.764788 117.874505,122.764788 Z" id="Shape" fill="#BDFF00"></path>
            <path d="M221.759597,127.868852 C222.962125,130.674752 221.625983,134.736626 217.764531,134.736626 L193.927746,134.736626 L166.80405,137.235212 L117.874505,137.235212 C115.269027,137.235212 112.970862,135.845624 111.701526,133.761242 L108.82882,133.761242 C107.666375,133.761242 106.731076,132.825942 106.731076,131.663498 L106.731076,128.336502 C106.731076,128.176165 106.744437,128.02919 106.784521,127.868852 C106.998304,128.804152 107.826713,129.512308 108.82882,129.512308 L111.701526,129.512308 C112.970862,131.583329 115.269027,132.986279 117.874505,132.986279 L166.80405,132.986279 L193.927746,130.474331 L217.764531,130.474331 C219.795467,130.474331 221.13161,129.351971 221.759597,127.868852 Z" id="Shape" fill="#00FFE3"></path>
            <path d="M193.927746,125.276736 C193.927746,125.276736 197.949535,112.86397 211.85878,109.389999 L227.611902,107.546123 C230.431163,107.212087 231.62033,110.926564 229.829899,112.77044 L217.764531,125.276736 L193.927746,125.276736 Z" id="Shape" fill="#00D9FF"></path>
            <path d="M193.927746,125.276736 C193.927746,125.276736 194.515648,123.472943 195.998767,121.054525 L221.839766,121.054525 L217.764531,125.276736 L193.927746,125.276736 Z" id="Shape" fill="#0089FF"></path>
            <path d="M193.927746,134.736626 C193.927746,134.736626 197.949535,147.13603 211.85878,150.610001 L227.611902,152.467239 C230.431163,152.801274 231.62033,149.073436 229.829899,147.22956 L217.764531,134.736626 L193.927746,134.736626 Z" id="Shape" fill="#00D9FF"></path>
            <path d="M193.927746,134.736626 C193.927746,134.736626 194.515648,136.540418 195.998767,138.958837 L221.839766,138.958837 L217.764531,134.736626 L193.927746,134.736626 Z" id="Shape" fill="#0089FF"></path>
            <rect id="Rectangle-path" fill="#FFFFFF" x="117.340048" y="125.664217" width="47.4865101" height="4.1687651" rx="1.26246575"></rect>
            <path d="M117.874505,120.733851 L166.80405,120.733851 L166.99111,120.747212 L193.927746,123.245799 L217.764531,123.245799 C220.864382,123.245799 222.855234,125.049591 223.737088,127.361118 C224.057762,128.202888 224.2181,129.111465 224.2181,130.006681 C224.2181,130.901896 224.057762,131.797112 223.737088,132.652243 C222.855234,134.96377 220.864382,136.767563 217.764531,136.767563 L193.927746,136.767563 L166.99111,139.252788 L166.80405,139.266149 L117.874505,139.266149 C116.23105,139.266149 114.694486,138.838584 113.358343,138.090344 C112.316152,137.502441 111.394213,136.727478 110.659335,135.792178 L108.82882,135.792178 C107.693098,135.792178 106.664268,135.33789 105.916029,134.58965 L105.902667,134.58965 C105.154427,133.84141 104.700139,132.799219 104.700139,131.663498 L104.700139,128.336502 C104.700139,127.200781 105.154427,126.171951 105.902667,125.423711 L105.916029,125.423711 C106.664268,124.675472 107.693098,124.207822 108.82882,124.207822 L110.659335,124.207822 C111.394213,123.285883 112.316152,122.497559 113.358343,121.923018 C114.694486,121.161416 116.23105,120.733851 117.874505,120.733851 Z M166.790688,124.795724 L117.874505,124.795724 C116.952567,124.795724 116.084074,125.03623 115.335834,125.463796 C114.54751,125.904723 113.8928,126.53271 113.42515,127.294311 L112.823886,128.269695 L111.701526,128.269695 L108.82882,128.269695 C108.802097,128.269695 108.788735,128.283057 108.775374,128.283057 L108.775374,128.296418 C108.762012,128.30978 108.762012,128.323141 108.762012,128.336502 L108.762012,131.663498 C108.762012,131.676859 108.762012,131.703582 108.775374,131.716943 C108.788735,131.730305 108.802097,131.730305 108.82882,131.730305 L111.701526,131.730305 L112.823886,131.730305 L113.42515,132.705689 C113.8928,133.46729 114.54751,134.108639 115.335834,134.549566 C116.084074,134.96377 116.952567,135.204276 117.874505,135.204276 L166.790688,135.204276 L193.740686,132.71905 L193.927746,132.705689 L217.764531,132.705689 C218.900252,132.705689 219.63513,132.050979 219.942443,131.222571 C220.089419,130.848451 220.156226,130.434246 220.156226,130.006681 C220.156226,129.579115 220.089419,129.151549 219.942443,128.777429 C219.63513,127.949021 218.900252,127.307673 217.764531,127.307673 L193.927746,127.307673 L193.740686,127.294311 L166.790688,124.795724 Z" id="Shape" fill="#0024FF" fill-rule="nonzero"></path>
            <path d="M106.731076,127.975744 C107.853435,127.975744 108.762012,128.884321 108.762012,130.006681 C108.762012,131.129041 107.853435,132.037618 106.731076,132.037618 L85.7001901,132.037618 C84.5778303,132.037618 83.6692533,131.129041 83.6692533,130.006681 C83.6692533,128.884321 84.5778303,127.975744 85.7001901,127.975744 L106.731076,127.975744 Z" id="Shape" fill="#0024FF" fill-rule="nonzero"></path>
            <path d="M192.0037,124.622026 C192.017062,124.581942 196.372887,111.167069 211.364407,107.42587 L211.618274,107.372424 L227.384758,105.528547 C228.921322,105.341487 230.204019,105.862583 231.139319,106.77116 C231.566884,107.185364 231.927643,107.693098 232.18151,108.254278 C232.435377,108.788735 232.609075,109.363277 232.675883,109.937818 C232.83622,111.420936 232.422016,113.010946 231.286294,114.17339 L219.220926,126.679685 L218.619662,127.307673 L217.764531,127.307673 L193.927746,127.307673 L191.095123,127.307673 L192.0037,124.622026 Z M212.2329,111.394213 C203.441081,113.625572 198.978365,119.691659 197.054319,123.245799 L216.909399,123.245799 L228.373503,111.367491 C228.600648,111.126985 228.680816,110.766226 228.640732,110.405468 C228.614009,110.245131 228.573925,110.098155 228.520479,109.964541 C228.467033,109.857649 228.400226,109.764119 228.333419,109.683951 C228.226528,109.590421 228.052829,109.536975 227.839046,109.550337 L212.2329,111.394213 Z" id="Shape" fill="#0024FF" fill-rule="nonzero"></path>
            <path d="M197.054319,136.767563 C198.978365,140.308341 203.441081,146.374428 212.2329,148.619148 L227.839046,150.449663 C228.052829,150.476386 228.226528,150.422941 228.333419,150.316049 C228.400226,150.235881 228.467033,150.142351 228.520479,150.035459 C228.573925,149.915206 228.614009,149.768231 228.640732,149.594532 C228.680816,149.233774 228.600648,148.873015 228.373503,148.632509 L216.909399,136.767563 L197.054319,136.767563 Z M211.364407,152.57413 C196.372887,148.832931 192.017062,135.418058 192.0037,135.377974 L191.095123,132.705689 L193.927746,132.705689 L217.764531,132.705689 L218.619662,132.705689 L219.220926,133.320315 L231.286294,145.82661 C232.422016,147.002415 232.83622,148.579064 232.675883,150.062182 C232.609075,150.636723 232.435377,151.211265 232.18151,151.745722 C231.927643,152.306902 231.566884,152.814636 231.139319,153.22884 C230.204019,154.137417 228.921322,154.658513 227.384758,154.484814 L211.618274,152.627576 L211.364407,152.57413 Z" id="Shape" fill="#0024FF" fill-rule="nonzero"></path>
            <path d="M233.611182,126.145228 C232.488823,126.145228 231.580246,125.236651 231.580246,124.114292 C231.580246,122.991932 232.488823,122.083355 233.611182,122.083355 L246.518321,122.083355 C247.64068,122.083355 248.549257,122.991932 248.549257,124.114292 C248.549257,125.236651 247.64068,126.145228 246.518321,126.145228 L233.611182,126.145228 Z" id="Shape" fill="#0024FF" fill-rule="nonzero"></path>
            <path d="M237.71314,141.417339 C236.590781,141.417339 235.682204,140.495401 235.682204,139.386402 C235.682204,138.264042 236.590781,137.342104 237.71314,137.342104 L242.416363,137.342104 C243.538722,137.342104 244.447299,138.264042 244.447299,139.386402 C244.447299,140.495401 243.538722,141.417339 242.416363,141.417339 L237.71314,141.417339 Z" id="Shape" fill="#0024FF" fill-rule="nonzero"></path>
            <path d="M146.280898,155.647258 C145.158538,155.647258 144.249961,154.738681 144.249961,153.616321 C144.249961,152.493962 145.158538,151.585385 146.280898,151.585385 L171.240043,151.585385 C172.362403,151.585385 173.27098,152.493962 173.27098,153.616321 C173.27098,154.738681 172.362403,155.647258 171.240043,155.647258 L146.280898,155.647258 Z" id="Shape" fill="#0024FF" fill-rule="nonzero"></path>
            <path d="M167.779434,112.195899 C166.670435,112.195899 165.748497,111.287322 165.748497,110.164962 C165.748497,109.042602 166.670435,108.134025 167.779434,108.134025 L176.865204,108.134025 C177.987564,108.134025 178.896141,109.042602 178.896141,110.164962 C178.896141,111.287322 177.987564,112.195899 176.865204,112.195899 L167.779434,112.195899 Z" id="Shape" fill="#0024FF" fill-rule="nonzero"></path>
            <path d="M98.0862326,146.240814 C98.3133768,145.145177 99.3956524,144.450383 100.491289,144.677527 C101.586926,144.918033 102.281721,145.986947 102.054576,147.082584 C100.651626,153.576237 98.4870754,159.054422 95.8014286,162.902513 C92.9688062,166.977748 89.5081967,169.329359 85.7001901,169.329359 C80.3823424,169.329359 75.7192045,164.679583 72.4857392,157.170461 C69.4794183,150.182435 67.6088185,140.575569 67.6088185,130.006681 C67.6088185,119.424431 69.4794183,109.817565 72.4857392,102.829539 C75.7192045,95.3204173 80.3823424,90.6706408 85.7001901,90.6706408 C89.5081967,90.6706408 92.9688062,93.0222519 95.8014286,97.097487 C98.4870754,100.945578 100.651626,106.437124 102.054576,112.917416 C102.281721,114.013053 101.586926,115.095329 100.491289,115.322473 C99.3956524,115.562979 98.3133768,114.854823 98.0862326,113.759186 C96.8035356,107.813351 94.8527674,102.8429 92.461072,99.4090138 C90.4034123,96.4561385 88.0785241,94.7325145 85.7001901,94.7325145 C82.1594121,94.7325145 78.7923326,98.4469911 76.2135773,104.43291 C73.4076777,110.939925 71.6840537,119.985611 71.6840537,130.006681 C71.6840537,140.027751 73.4076777,149.060075 76.2135773,155.56709 C78.7923326,161.56637 82.1594121,165.267485 85.7001901,165.267485 C88.0785241,165.267485 90.4034123,163.557223 92.461072,160.590986 C94.8527674,157.170461 96.8035356,152.20001 98.0862326,146.240814 Z" id="Shape" fill="#0024FF" fill-rule="nonzero"></path>
        </g>
    </g>
</svg>