<?xml version="1.0" encoding="UTF-8"?>
<svg width="1846px" height="1213px" viewBox="0 0 1846 1213" version="1.1" xmlns="http://www.w3.org/2000/svg" xmlns:xlink="http://www.w3.org/1999/xlink">
    <!-- Generator: Sketch 49.2 (51160) - http://www.bohemiancoding.com/sketch -->
    <title>Group 2 Copy 2</title>
    <desc>Created with Sketch.</desc>
    <defs>
        <rect id="path-1" x="0" y="0" width="1846" height="1213"></rect>
    </defs>
    <g id="Page-1" stroke="none" stroke-width="1" fill="none" fill-rule="evenodd">
        <g id="Group-2-Copy-2">
            <mask id="mask-2" fill="white">
                <use xlink:href="#path-1"></use>
            </mask>
            <g id="Mask"></g>
            <g mask="url(#mask-2)">
                <g transform="translate(-2346.000000, -898.000000)">
                    <g id="Group" transform="translate(3653.000000, 350.000000)">
                        <g id="Group-8-Copy-2"></g>
                    </g>
                    <g id="Group-Copy-2" transform="translate(3194.000000, 1428.000000)" stroke-linejoin="round">
                        <g id="Group-8-Copy-2" stroke-width="5">
                            <polyline id="Path-4" stroke="#0024FF" points="190.098881 125.572188 474.536109 125.572188 474.536109 165.56333"></polyline>
                            <polyline id="Path-4-Copy" stroke="#0089FF" points="1.42218614 0 522.890437 0 522.890437 39.9911426"></polyline>
                            <polyline id="Path-9" stroke="#0024FF" points="474.536109 205.554473 474.536109 245.545616 1043.41056 245.545616"></polyline>
                            <polyline id="Path-9-Copy" stroke="#0089FF" points="522.890437 79.9822852 522.890437 119.973428 1091.76489 119.973428"></polyline>
                            <path d="M191.047005,149.566873 L380.197761,149.566873" id="Path-26" stroke="#B6EBFF"></path>
                            <path d="M96.2345954,181.559787 L285.385352,181.559787" id="Path-26-Copy-3" stroke="#B6EBFF"></path>
                            <polyline id="Path-26-Copy-4" stroke="#BDFF00" points="379.249637 325.527901 379.249637 461.866454 521.468251 461.866454"></polyline>
                            <path d="M427.129904,533.881754 L521.468251,533.881754" id="Path-26-Copy-5" stroke="#007EAF"></path>
                            <path d="M521.942313,285.536758 L948.598155,285.536758" id="Path-27" stroke="#0089FF"></path>
                            <path d="" id="Path-28" stroke="#979797"></path>
                            <polyline id="Path-31" stroke="#0024FF" points="190.098881 365.519043 569.348518 365.519043 569.348518 445.501329"></polyline>
                            <polyline id="Path-32" stroke="#0024FF" points="569.348518 477.894154 569.348518 533.881754 758.973336 533.881754"></polyline>
                            <polyline id="Path-33" stroke="#00B5EC" points="284.91129 405.510186 758.973336 405.510186 758.973336 365.519043"></polyline>
                            <polyline id="Path-33-Copy" stroke="#00B5EC" points="967.560637 205.554473 1327.84779 205.554473 1327.84779 165.56333"></polyline>
                            <polyline id="Path-34" stroke="#00B5EC" points="758.973336 349.522586 758.973336 325.527901 1185.62918 325.527901"></polyline>
                            <path d="M47.4062046,335.125775 L331.843433,335.125775" id="Path-35" stroke="#0076DB"></path>
                            <path d="M711.567132,149.566873 L996.00436,149.566873" id="Path-35-Copy-4" stroke="#00FFE3"></path>
                            <path d="M768.454273,453.499557 L1138.22297,453.499557" id="Path-35-Copy" stroke="#0089FF"></path>
                            <path d="M806.379541,533.881754 L1024.44808,533.881754" id="Path-35-Copy-2" stroke="#0024FF"></path>
                            <path d="M948.598155,365.519043 L1337.32903,365.519043" id="Path-35-Copy-3" stroke="#0089FF"></path>
                            <polyline id="Path-36" stroke="#B6EBFF" points="569.348518 173.561559 1233.03538 173.561559 1233.03538 253.543844"></polyline>
                            <polyline id="Path-31-Copy" stroke="#0024FF" points="948.598155 405.510186 1327.84779 405.910097 1327.84779 485.492471"></polyline>
                            <path d="M948.598155,69.5845881 C960.790438,69.5845881 1118.81112,69.5845881 1422.6602,69.5845881 L1422.18614,149.566873" id="Path-38" stroke="#0024FF"></path>
                            <polyline id="Path-41" stroke="#00B5EC" points="95.2864713 237.547387 332.317495 237.547387 332.317495 181.559787"></polyline>
                            <polyline id="Path-42" stroke="#00B5EC" points="332.317495 101.577502 332.317495 61.5863596 758.973336 61.5863596"></polyline>
                            <polyline id="Path-43" stroke="#BDFF00" points="379.968137 302.228374 379.968137 269.540301 2.72848411e-12 269.540301"></polyline>
                        </g>
                    </g>
                    <g id="Group-Copy-5" transform="translate(224.000000, 1078.000000)" stroke-linejoin="round">
                        <g id="Group-8-Copy-3" transform="translate(1487.458655, 175.000000)" stroke-width="5">
                            <polyline id="Path-9" stroke="#0024FF" points="474.536109 205.554473 474.536109 245.545616 1043.41056 245.545616"></polyline>
                            <polyline id="Path-9-Copy" stroke="#0089FF" points="522.890437 79.9822852 522.890437 119.973428 1091.76489 119.973428"></polyline>
                            <path d="M1242.99069,39.1913198 L1432.14144,39.1913198" id="Path-26-Copy-6" stroke="#BDFF00"></path>
                            <path d="M1262.90129,324.728078 L1452.05205,324.728078" id="Path-26-Copy-7" stroke="#BDFF00"></path>
                            <path d="M1043.87512,149.566873 L1233.03538,149.566873" id="Path-26-Copy" stroke="#007EAF"></path>
                            <path d="M521.942313,285.536758 L948.598155,285.536758" id="Path-27" stroke="#0089FF"></path>
                            <polyline id="Path-32" stroke="#0024FF" points="569.348518 477.894154 569.348518 533.881754 758.973336 533.881754"></polyline>
                            <polyline id="Path-33" stroke="#00B5EC" points="284.91129 405.510186 758.973336 405.510186 758.973336 365.519043"></polyline>
                            <polyline id="Path-33-Copy" stroke="#00B5EC" points="967.560637 205.554473 1327.84779 205.554473 1327.84779 165.56333"></polyline>
                            <polyline id="Path-34" stroke="#00B5EC" points="758.973336 349.522586 758.973336 325.527901 1185.62918 325.527901"></polyline>
                            <polyline id="Path-34-Copy" stroke="#00B5EC" points="1327.84779 149.566873 1327.84779 125.572188 1631.2475 125.572188"></polyline>
                            <path d="M711.567132,149.566873 L996.00436,149.566873" id="Path-35-Copy-4" stroke="#00FFE3"></path>
                            <path d="M1319.15656,262.399911 L1603.59379,262.399911" id="Path-35-Copy-5" stroke="#007EAF"></path>
                            <path d="M1452.05205,93.9791851 L1736.48928,93.9791851" id="Path-35-Copy-8" stroke="#00FFE3"></path>
                            <path d="M1357.7137,366.318866 L1547.29703,366.318866" id="Path-35-Copy-6" stroke="#0089FF"></path>
                            <path d="M1319.31468,573.073074 L1508.89801,573.073074" id="Path-35-Copy-7" stroke="#00FFE3"></path>
                            <path d="M768.454273,453.499557 L1138.22297,453.499557" id="Path-35-Copy" stroke="#0089FF"></path>
                            <path d="M806.379541,533.881754 L1024.44808,533.881754" id="Path-35-Copy-2" stroke="#0024FF"></path>
                            <path d="M948.598155,365.519043 L1337.32903,365.519043" id="Path-35-Copy-3" stroke="#0089FF"></path>
                            <polyline id="Path-36" stroke="#B6EBFF" points="569.348518 173.561559 1233.03538 173.561559 1233.03538 253.543844"></polyline>
                            <polyline id="Path-37" stroke="#B6EBFF" points="1233.03538 285.536758 1233.03538 445.501329 1451.10392 445.501329"></polyline>
                            <polyline id="Path-31-Copy" stroke="#0024FF" points="948.598155 405.510186 1327.84779 405.910097 1327.84779 485.492471"></polyline>
                            <polyline id="Path-32-Copy" stroke="#0024FF" points="1327.84779 509.487157 1327.84779 541.480071 1631.2475 541.480071"></polyline>
                            <path d="M948.598155,69.5845881 C960.790438,69.5845881 1118.81112,69.5845881 1422.6602,69.5845881 L1422.18614,149.566873" id="Path-38" stroke="#0024FF"></path>
                            <polyline id="Path-39" stroke="#0024FF" points="1422.18614 181.559787 1422.18614 213.552702 1527.62479 213.552702"></polyline>
                            <path d="M1541.06822,213 L1725.58585,213" id="Path-40" stroke="#0024FF"></path>
                            <polyline id="Path-42" stroke="#00B5EC" points="332.317495 101.577502 332.317495 61.5863596 758.973336 61.5863596"></polyline>
                        </g>
                    </g>
                    <g id="Group-Copy" transform="translate(3429.000000, 889.000000)" stroke-linejoin="round">
                        <g id="Group-8-Copy-2" stroke-width="5">
                            <polyline id="Path-4" stroke="#0024FF" points="190.098881 125.572188 474.536109 125.572188 474.536109 165.56333"></polyline>
                            <polyline id="Path-4-Copy" stroke="#0089FF" points="1.42218614 0 522.890437 0 522.890437 39.9911426"></polyline>
                            <polyline id="Path-9" stroke="#0024FF" points="474.536109 205.554473 474.536109 245.545616 1043.41056 245.545616"></polyline>
                            <polyline id="Path-9-Copy" stroke="#0089FF" points="522.890437 79.9822852 522.890437 119.973428 1091.76489 119.973428"></polyline>
                            <path d="M191.047005,149.566873 L380.197761,149.566873" id="Path-26" stroke="#B6EBFF"></path>
                            <path d="M96.2345954,181.559787 L285.385352,181.559787" id="Path-26-Copy-3" stroke="#B6EBFF"></path>
                            <polyline id="Path-26-Copy-4" stroke="#BDFF00" points="379.249637 325.527901 379.249637 461.866454 521.468251 461.866454"></polyline>
                            <path d="M427.129904,533.881754 L521.468251,533.881754" id="Path-26-Copy-5" stroke="#007EAF"></path>
                            <path d="M521.942313,285.536758 L948.598155,285.536758" id="Path-27" stroke="#0089FF"></path>
                            <path d="" id="Path-28" stroke="#979797"></path>
                            <polyline id="Path-31" stroke="#0024FF" points="190.098881 365.519043 569.348518 365.519043 569.348518 445.501329"></polyline>
                            <polyline id="Path-32" stroke="#0024FF" points="569.348518 477.894154 569.348518 533.881754 758.973336 533.881754"></polyline>
                            <polyline id="Path-33" stroke="#00B5EC" points="284.91129 405.510186 758.973336 405.510186 758.973336 365.519043"></polyline>
                            <polyline id="Path-34" stroke="#00B5EC" points="758.973336 349.522586 758.973336 325.527901 1185.62918 325.527901"></polyline>
                            <path d="M47.4062046,335.125775 L331.843433,335.125775" id="Path-35" stroke="#0076DB"></path>
                            <path d="M711.567132,149.566873 L996.00436,149.566873" id="Path-35-Copy-4" stroke="#00FFE3"></path>
                            <polyline id="Path-36" stroke="#B6EBFF" points="569.348518 173.561559 1233.03538 173.561559 1233.03538 253.543844"></polyline>
                            <polyline id="Path-41" stroke="#00B5EC" points="95.2864713 237.547387 332.317495 237.547387 332.317495 181.559787"></polyline>
                            <polyline id="Path-42" stroke="#00B5EC" points="332.317495 101.577502 332.317495 61.5863596 758.973336 61.5863596"></polyline>
                            <polyline id="Path-43" stroke="#BDFF00" points="379.968137 302.228374 379.968137 269.540301 2.72848411e-12 269.540301"></polyline>
                        </g>
                    </g>
                    <g id="Group-Copy-6" transform="translate(459.000000, 539.000000)" stroke-linejoin="round">
                        <g id="Group-8-Copy-3" transform="translate(1487.458655, 175.000000)" stroke-width="5">
                            <polyline id="Path-9" stroke="#0024FF" points="474.536109 205.554473 474.536109 245.545616 1043.41056 245.545616"></polyline>
                            <path d="M1262.90129,324.728078 L1452.05205,324.728078" id="Path-26-Copy-7" stroke="#BDFF00"></path>
                            <polyline id="Path-26-Copy-4" stroke="#BDFF00" points="379.249637 325.527901 379.249637 461.866454 521.468251 461.866454"></polyline>
                            <path d="M427.129904,533.881754 L521.468251,533.881754" id="Path-26-Copy-5" stroke="#007EAF"></path>
                            <path d="M521.942313,285.536758 L948.598155,285.536758" id="Path-27" stroke="#0089FF"></path>
                            <polyline id="Path-31" stroke="#0024FF" points="190.098881 365.519043 569.348518 365.519043 569.348518 445.501329"></polyline>
                            <polyline id="Path-32" stroke="#0024FF" points="569.348518 477.894154 569.348518 533.881754 758.973336 533.881754"></polyline>
                            <polyline id="Path-33" stroke="#00B5EC" points="284.91129 405.510186 758.973336 405.510186 758.973336 365.519043"></polyline>
                            <polyline id="Path-33-Copy" stroke="#00B5EC" points="967.560637 205.554473 1327.84779 205.554473 1327.84779 165.56333"></polyline>
                            <polyline id="Path-34" stroke="#00B5EC" points="758.973336 349.522586 758.973336 325.527901 1185.62918 325.527901"></polyline>
                            <path d="M1319.15656,262.399911 L1603.59379,262.399911" id="Path-35-Copy-5" stroke="#007EAF"></path>
                            <path d="M1357.7137,366.318866 L1547.29703,366.318866" id="Path-35-Copy-6" stroke="#0089FF"></path>
                            <path d="M1319.31468,573.073074 L1508.89801,573.073074" id="Path-35-Copy-7" stroke="#00FFE3"></path>
                            <path d="M768.454273,453.499557 L1138.22297,453.499557" id="Path-35-Copy" stroke="#0089FF"></path>
                            <path d="M806.379541,533.881754 L1024.44808,533.881754" id="Path-35-Copy-2" stroke="#0024FF"></path>
                            <path d="M948.598155,365.519043 L1337.32903,365.519043" id="Path-35-Copy-3" stroke="#0089FF"></path>
                            <polyline id="Path-36" stroke="#B6EBFF" points="569.348518 173.561559 1233.03538 173.561559 1233.03538 253.543844"></polyline>
                            <polyline id="Path-37" stroke="#B6EBFF" points="1233.03538 285.536758 1233.03538 445.501329 1451.10392 445.501329"></polyline>
                            <polyline id="Path-31-Copy" stroke="#0024FF" points="948.598155 405.510186 1327.84779 405.910097 1327.84779 485.492471"></polyline>
                            <polyline id="Path-32-Copy" stroke="#0024FF" points="1327.84779 509.487157 1327.84779 541.480071 1631.2475 541.480071"></polyline>
                            <polyline id="Path-39" stroke="#0024FF" points="1422.18614 181.559787 1422.18614 213.552702 1527.62479 213.552702"></polyline>
                            <path d="M1541.06822,213 L1725.58585,213" id="Path-40" stroke="#0024FF"></path>
                        </g>
                    </g>
                    <g id="Group-Copy-3" transform="translate(2970.000000, 1967.000000)" stroke-linejoin="round">
                        <g id="Group-8-Copy-2" stroke-width="5">
                            <polyline id="Path-4" stroke="#0024FF" points="190.098881 125.572188 474.536109 125.572188 474.536109 165.56333"></polyline>
                            <polyline id="Path-4-Copy" stroke="#0089FF" points="1.42218614 0 522.890437 0 522.890437 39.9911426"></polyline>
                            <polyline id="Path-9-Copy" stroke="#0089FF" points="522.890437 79.9822852 522.890437 119.973428 1091.76489 119.973428"></polyline>
                            <path d="M948.598155,69.5845881 C960.790438,69.5845881 1118.81112,69.5845881 1422.6602,69.5845881 L1422.18614,149.566873" id="Path-38" stroke="#0024FF"></path>
                            <polyline id="Path-42" stroke="#00B5EC" points="332.317495 101.577502 332.317495 61.5863596 758.973336 61.5863596"></polyline>
                        </g>
                    </g>
                    <g id="Group-Copy-7" transform="translate(0.000000, 1617.000000)" stroke-linejoin="round">
                        <g id="Group-8-Copy-3" transform="translate(1487.458655, 175.000000)" stroke-width="5">
                            <polyline id="Path-9" stroke="#0024FF" points="474.536109 205.554473 474.536109 245.545616 1043.41056 245.545616"></polyline>
                            <polyline id="Path-9-Copy" stroke="#0089FF" points="522.890437 79.9822852 522.890437 119.973428 1091.76489 119.973428"></polyline>
                            <path d="M1242.99069,39.1913198 L1432.14144,39.1913198" id="Path-26-Copy-6" stroke="#BDFF00"></path>
                            <path d="M1043.87512,149.566873 L1233.03538,149.566873" id="Path-26-Copy" stroke="#007EAF"></path>
                            <path d="M521.942313,285.536758 L948.598155,285.536758" id="Path-27" stroke="#0089FF"></path>
                            <polyline id="Path-33-Copy" stroke="#00B5EC" points="967.560637 205.554473 1327.84779 205.554473 1327.84779 165.56333"></polyline>
                            <polyline id="Path-34-Copy" stroke="#00B5EC" points="1327.84779 149.566873 1327.84779 125.572188 1631.2475 125.572188"></polyline>
                            <path d="M711.567132,149.566873 L996.00436,149.566873" id="Path-35-Copy-4" stroke="#00FFE3"></path>
                            <path d="M1319.15656,262.399911 L1603.59379,262.399911" id="Path-35-Copy-5" stroke="#007EAF"></path>
                            <path d="M1452.05205,93.9791851 L1736.48928,93.9791851" id="Path-35-Copy-8" stroke="#00FFE3"></path>
                            <polyline id="Path-36" stroke="#B6EBFF" points="569.348518 173.561559 1233.03538 173.561559 1233.03538 253.543844"></polyline>
                            <polyline id="Path-37" stroke="#B6EBFF" points="1233.03538 285.536758 1233.03538 445.501329 1451.10392 445.501329"></polyline>
                            <path d="M948.598155,69.5845881 C960.790438,69.5845881 1118.81112,69.5845881 1422.6602,69.5845881 L1422.18614,149.566873" id="Path-38" stroke="#0024FF"></path>
                            <polyline id="Path-39" stroke="#0024FF" points="1422.18614 181.559787 1422.18614 213.552702 1527.62479 213.552702"></polyline>
                            <path d="M1541.06822,213 L1725.58585,213" id="Path-40" stroke="#0024FF"></path>
                        </g>
                    </g>
                </g>
            </g>
        </g>
    </g>
</svg>