<?xml version="1.0" encoding="UTF-8"?>
<svg width="536px" height="199px" viewBox="0 0 536 199" version="1.1" xmlns="http://www.w3.org/2000/svg" xmlns:xlink="http://www.w3.org/1999/xlink">
    <!-- Generator: Sketch 51.2 (57519) - http://www.bohemiancoding.com/sketch -->
    <title>trust_hor_blanco</title>
    <desc>Created with Sketch.</desc>
    <defs></defs>
    <g id="Page-1" stroke="none" stroke-width="1" fill="none" fill-rule="evenodd">
        <g id="trust_hor_blanco" fill="#777777">
            <g id="Group-40-Copy-2">
                <path d="M167.116786,166.993908 L186.392704,166.993908 L186.392704,73.7980831 L93.181002,73.7980831 L93.181002,166.993908 L112.625235,166.993908 L112.601055,198.063676 L69.9119178,198.063676 C65.6223275,198.063676 62.1449275,194.586276 62.1449275,190.296686 L62.1449275,50.4900013 C62.1449275,46.200411 65.6223275,42.723011 69.9119178,42.723011 L209.804619,42.7184459 C214.094209,42.7184459 217.571609,46.1958459 217.571609,50.4854362 C217.571609,50.4869584 217.571609,50.4884805 217.571608,50.4900027 L217.480279,190.296684 C217.477758,194.584491 214.001097,198.059108 209.71329,198.059108 L167.116786,198.063676 L167.116786,166.993908 Z" id="Path-44-Copy" transform="translate(139.858268, 120.391061) scale(-1, -1) translate(-139.858268, -120.391061) "></path>
                <path d="M104.971858,124.275461 L124.247776,124.275461 L124.247776,31.0796365 L31.0360744,31.0796365 L31.0360744,124.275461 L50.4803078,124.275461 L50.4561272,155.345229 L7.76699029,155.345229 C3.4774,155.345229 5.85439382e-15,151.867829 5.32907052e-15,147.578239 L-8.8817842e-16,7.77155471 C-3.31846248e-15,3.48196442 3.4774,0.00456441801 7.76699029,0.00456441801 L147.659691,-6.61315338e-07 C151.949282,-6.61315339e-07 155.426682,3.47739934 155.426682,7.76698963 C155.426682,7.76851177 155.426681,7.77003391 155.42668,7.77155605 L155.335351,147.578238 C155.332831,151.866044 151.85617,155.340662 147.568363,155.340662 L104.971858,155.345229 L104.971858,124.275461 Z" id="Path-44-Copy-2"></path>
            </g>
            <g id="logo_trust-copy" transform="translate(256.347826, 42.718447)" fill-rule="nonzero">
                <path d="M173.744113,28.1449016 C173.744113,10.2342948 182.357042,0 199.11159,0 C215.866139,0 224.479067,10.2342948 224.479067,28.1449016 C224.479067,30.0882119 222.940384,31.6627188 221.041289,31.6627188 L208.193516,31.6627188 L208.193516,27.0243066 C208.193516,19.0300198 205.061857,15.9921199 199.580588,15.9921199 C194.100474,15.9921199 190.96997,19.0300198 190.96997,27.0243066 C190.96997,35.180536 194.413524,41.2586999 205.687958,51.3334163 C220.094051,64.2852721 224.635015,73.5609144 224.635015,86.3543738 C224.635015,104.264981 215.866139,114.499275 198.955642,114.499275 C182.043991,114.499275 173.275115,104.264981 173.275115,86.3543738 L173.275115,79.4783179 L185.287701,79.4783179 C187.646553,79.4783179 189.559511,81.4358129 189.559511,83.850766 L189.559511,87.4737868 C189.559511,95.4692557 193.005375,98.3475772 198.485489,98.3475772 C203.966759,98.3475772 207.410313,95.4692557 207.410313,87.4737868 C207.410313,79.3187395 203.966759,73.2405755 192.691169,63.1658592 C178.286232,50.2140034 173.744113,40.9383611 173.744113,28.1449016 Z M226.412817,1.18206223 L275.37921,1.18206223 C277.739217,1.18206223 279.652174,3.13955727 279.652174,5.5545104 L279.652174,17.173 L261.644269,17.173 L261.644269,113.122173 L244.419567,113.122173 L244.419567,21.5454482 C244.419567,19.1304951 242.50661,17.173 240.146603,17.173 L226.412817,17.173 L226.412817,1.18206223 Z M150.592247,1.18206223 L162.604834,1.18206223 C164.964841,1.18206223 166.877798,3.13955727 166.877798,5.5545104 L166.877798,86.4170231 C166.877798,104.32763 158.108922,114.563107 141.198426,114.563107 C124.286775,114.563107 115.516743,104.32763 115.516743,86.4170231 L115.516743,1.18206223 L128.468481,1.18206223 C130.828488,1.18206223 132.741445,3.13955727 132.741445,5.5545104 L132.741445,87.5364361 C132.741445,95.533087 136.18731,98.4102265 141.667424,98.4102265 C147.148693,98.4102265 150.592247,95.533087 150.592247,87.5364361 L150.592247,1.18206223 Z M57.7583717,1.18206223 L83.7519493,1.18206223 C101.602752,1.18206223 109.275374,9.65744838 109.275374,26.9273775 L109.275374,35.7242846 C109.275374,47.2375707 105.673562,54.5935439 98.0009397,58.2721215 L98.0009397,58.5912783 C106.613868,62.269856 109.432477,70.5856637 109.432477,82.2597103 L109.432477,99.5308215 C109.432477,104.967126 109.588424,108.966042 111.310779,113.122173 L93.7730268,113.122173 C92.8327205,110.245033 92.2066198,108.486125 92.2066198,99.370061 L92.2066198,81.7809751 C92.2066198,71.3859199 88.7619105,67.5465818 80.9333408,67.5465818 L74.9819182,67.5465818 L74.9819182,113.122173 L57.7583717,113.122173 L57.7583717,1.18206223 Z M74.9819182,17.173 L74.9819182,51.555644 L81.7165443,51.555644 C88.1358098,51.555644 92.0506722,48.6773225 92.0506722,39.722019 L92.0506722,28.6874682 C92.0506722,20.6919993 89.3891664,17.173 83.2817962,17.173 L74.9819182,17.173 Z M-1.21502808e-12,1.18206223 L48.9663924,1.18206223 C51.3263995,1.18206223 53.2393567,3.13955727 53.2393567,5.5545104 L53.2393567,17.173 L35.2314516,17.173 L35.2314516,113.122173 L18.00675,113.122173 L18.00675,21.5454482 C18.00675,19.1304951 16.0926375,17.173 13.7337856,17.173 L-1.21502808e-12,17.173 L-1.21502808e-12,1.18206223 Z" id="Combined-Shape"></path>
            </g>
        </g>
    </g>
</svg>