<?xml version="1.0" encoding="UTF-8"?>
<svg width="475px" height="77px" viewBox="0 0 475 77" version="1.1" xmlns="http://www.w3.org/2000/svg" xmlns:xlink="http://www.w3.org/1999/xlink">
    <!-- Generator: Sketch 51.2 (57519) - http://www.bohemiancoding.com/sketch -->
    <title>logo_banco_pacifico</title>
    <desc>Created with Sketch.</desc>
    <defs></defs>
    <g id="Page-1" stroke="none" stroke-width="1" fill="none" fill-rule="evenodd">
        <g id="logo_banco_pacifico" fill="#FFFFFF">
            <text id="Banco-Pacífico" font-family="HelveticaNeue-Medium, Helvetica Neue" font-size="47.3" font-weight="400" letter-spacing="2">
                <tspan x="122.2811" y="58">Banco Pacífico</tspan>
            </text>
            <g id="if_shark-fin-wave-sea_458895">
                <path d="M102,47.1910014 C102,47.1910014 89.0208136,42.2464897 75.1490066,52.5960314 C68.34579,57.6859699 54.1844844,75.4280413 43.8349101,72.8103586 C43.8349101,72.8103586 63.0624409,83.5961807 76.5,70.556243 C89.9134342,57.5163053 86.8013245,49.4208792 102,47.1910014 Z M15.1986755,38.1987767 C15.1986755,38.1987767 25.4758751,41.7859715 38.4550615,39.9923741 C51.4342479,38.1987767 53.2194891,35.9446611 53.2194891,35.9446611 C53.2194891,35.9446611 53.6778619,24.2620403 44.269158,14.3730169 C34.884579,4.48399346 27.7194891,0 27.7194891,0 C27.7194891,0 29.5047304,21.1353638 15.1986755,38.1987767 Z M100.649007,34.1510637 C100.649007,34.1510637 86.3429518,31.896948 68.4422895,47.6272818 C50.5416272,63.3576156 45.1859035,67.4053287 28.1778619,66.0480117 C11.1698202,64.6906948 3.13623463,51.6749949 1.78524125,46.7304832 C0.434247871,41.7859715 0,40.4286545 0,40.4286545 C0,40.4286545 8.49195837,41.3254532 18.3349101,43.5795688 C28.1778619,45.8336845 40.2644276,46.7304832 56.8140965,38.6350571 C73.3637654,30.5396311 89.0208136,25.5951194 100.649007,34.1510637 Z" id="Shape"></path>
            </g>
        </g>
    </g>
</svg>