<?xml version="1.0" encoding="UTF-8"?>
<svg width="200px" height="200px" viewBox="0 0 200 200" version="1.1" xmlns="http://www.w3.org/2000/svg" xmlns:xlink="http://www.w3.org/1999/xlink">
    <!-- Generator: Sketch 49.3 (51167) - http://www.bohemiancoding.com/sketch -->
    <title>logo_trust</title>
    <desc>Created with Sketch.</desc>
    <defs>
        <linearGradient x1="0%" y1="100%" x2="100%" y2="0%" id="linearGradient-1">
            <stop stop-color="#00D9FF" offset="0%"></stop>
            <stop stop-color="#0024FF" offset="100%"></stop>
        </linearGradient>
        <linearGradient x1="100%" y1="0%" x2="0%" y2="100%" id="linearGradient-2">
            <stop stop-color="#00D9FF" offset="0%"></stop>
            <stop stop-color="#0024FF" offset="100%"></stop>
        </linearGradient>
    </defs>
    <g id="logo_trust" stroke="none" stroke-width="1" fill="none" fill-rule="evenodd">
        <g id="Group-2" transform="translate(45.000000, 18.000000)">
            <g id="Group-40">
                <path d="M85.3549113,85.1994674 L95.1524408,85.1994674 L95.1524408,37.8053445 L47.7749612,37.8053445 L47.7749612,85.1994674 L57.6580419,85.1994674 L57.6457515,100.999794 L35.6,100.999794 C33.6117749,100.999794 32,99.3880187 32,97.3997936 L32,25.6023212 C32,23.6140961 33.6117749,22.0023212 35.6,22.0023212 L107.4,22.0002064 C109.388225,22.0002064 111,23.6119813 111,25.6002064 C111,25.6009115 111,25.6016167 110.999999,25.6023218 L110.953579,97.399793 C110.952411,99.3871917 109.340979,100.997678 107.353579,100.997678 L85.3549113,100.999794 L85.3549113,85.1994674 Z" id="Path-44-Copy" fill="url(#linearGradient-1)" transform="translate(71.500000, 61.499897) scale(-1, -1) translate(-71.500000, -61.499897) "></path>
                <path d="M53.3549113,63.1996738 L63.1524408,63.1996738 L63.1524408,15.8055509 L15.7749612,15.8055509 L15.7749612,63.1996738 L25.6580419,63.1996738 L25.6457515,79 L3.6,79 C1.6117749,79 5.52549591e-15,77.3882251 -2.66453526e-15,75.4 L0,3.60252761 C-2.4348735e-16,1.61430251 1.6117749,0.00252760978 3.6,0.00252760978 L75.4,0.000412798519 C77.3882251,0.000412798519 79,1.6121877 79,3.6004128 C79,3.60111794 78.9999998,3.60182309 78.9999994,3.60252823 L78.9535789,75.3999994 C78.952411,77.3873981 77.3409785,78.9978839 75.3535795,78.9978839 L53.3549113,79 L53.3549113,63.1996738 Z" id="Path-44-Copy-2" fill="url(#linearGradient-2)"></path>
            </g>
            <g id="logo_trust" transform="translate(0.000000, 119.000000)" fill="#343434" fill-rule="nonzero">
                <path d="M68.9627987,11.0552219 C68.9627987,4.01999629 72.3814563,3.55271368e-15 79.0316992,3.55271368e-15 C85.6819421,3.55271368e-15 89.1005998,4.01999629 89.1005998,11.0552219 C89.1005998,11.8185476 88.4898632,12.4370086 87.7360712,12.4370086 L82.6365123,12.4370086 L82.6365123,10.615056 C82.6365123,7.47492726 81.3934891,6.28165047 79.2178547,6.28165047 C77.0426787,6.28165047 75.800114,7.47492726 75.800114,10.615056 C75.800114,13.8187953 77.1669352,16.2062775 81.6420021,20.1635919 C87.3600922,25.251037 89.1624988,28.8944778 89.1624988,33.9197053 C89.1624988,40.954931 85.6819421,44.9749273 78.9698002,44.9749273 C72.2571999,44.9749273 68.7766432,40.954931 68.7766432,33.9197053 L68.7766432,31.2188138 L73.5446986,31.2188138 C74.480978,31.2188138 75.2402721,31.9877113 75.2402721,32.9362967 L75.2402721,34.3594069 C75.2402721,37.5 76.6080103,38.6305949 78.7831863,38.6305949 C80.9588208,38.6305949 82.3256419,37.5 82.3256419,34.3594069 C82.3256419,31.156132 80.9588208,28.7686498 76.4832953,24.8113354 C70.7656637,19.7238903 68.9627987,16.0804495 68.9627987,11.0552219 Z M89.8681471,0.464310035 L109.303968,0.464310035 C110.240706,0.464310035 111,1.23320745 111,2.18179286 L111,6.74549619 L103.852273,6.74549619 L103.852273,44.4340061 L97.0154159,44.4340061 L97.0154159,8.46297901 C97.0154159,7.51439361 96.2561217,6.74549619 95.3193839,6.74549619 L89.8681471,6.74549619 L89.8681471,0.464310035 Z M59.7733221,0.464310035 L64.5413775,0.464310035 C65.4781154,0.464310035 66.2374095,1.23320745 66.2374095,2.18179286 L66.2374095,33.9443137 C66.2374095,40.9795394 62.7568529,45 56.044711,45 C49.3321106,45 45.8510955,40.9795394 45.8510955,33.9443137 L45.8510955,0.464310035 L50.9919203,0.464310035 C51.9286582,0.464310035 52.6879523,1.23320745 52.6879523,2.18179286 L52.6879523,34.3840154 C52.6879523,37.5250727 54.0556905,38.6552034 56.2308665,38.6552034 C58.4065009,38.6552034 59.7733221,37.5250727 59.7733221,34.3840154 L59.7733221,0.464310035 Z M22.9255477,0.464310035 L33.2429612,0.464310035 C40.328331,0.464310035 43.3737608,3.79341299 43.3737608,10.5769826 L43.3737608,14.0323779 C43.3737608,18.5547576 41.9441236,21.444159 38.8986939,22.8890918 L38.8986939,23.0144555 C42.3173515,24.4593883 43.4361183,27.7258094 43.4361183,32.3113354 L43.4361183,39.0953693 C43.4361183,41.2307311 43.4980172,42.801492 44.1816571,44.4340061 L37.2205438,44.4340061 C36.8473159,43.3038754 36.5988029,42.6129821 36.5988029,39.0322231 L36.5988029,32.1232898 C36.5988029,28.0401473 35.2315232,26.5320683 32.1241945,26.5320683 L29.7619461,26.5320683 L29.7619461,44.4340061 L22.9255477,44.4340061 L22.9255477,0.464310035 Z M29.7619461,6.74549619 L29.7619461,20.2508822 L32.4350649,20.2508822 C34.9830103,20.2508822 36.5369039,19.1202873 36.5369039,15.6026744 L36.5369039,11.2683402 C36.5369039,8.12774717 35.4804947,6.74549619 33.0563473,6.74549619 L29.7619461,6.74549619 Z M-1.21502808e-12,0.464310035 L19.4358209,0.464310035 C20.3725587,0.464310035 21.1318529,1.23320745 21.1318529,2.18179286 L21.1318529,6.74549619 L13.9841256,6.74549619 L13.9841256,44.4340061 L7.14726876,44.4340061 L7.14726876,8.46297901 C7.14726876,7.51439361 6.38751611,6.74549619 5.45123674,6.74549619 L-1.21502808e-12,6.74549619 L-1.21502808e-12,0.464310035 Z" id="Combined-Shape"></path>
            </g>
        </g>
    </g>
</svg>