<?xml version="1.0" encoding="UTF-8"?>
<svg width="80px" height="24px" viewBox="0 0 80 24" version="1.1" xmlns="http://www.w3.org/2000/svg" xmlns:xlink="http://www.w3.org/1999/xlink">
    <!-- Generator: Sketch 50.2 (55047) - http://www.bohemiancoding.com/sketch -->
    <title>logo_trust_main</title>
    <desc>Created with Sketch.</desc>
    <defs></defs>
    <g id="Page-1" stroke="none" stroke-width="1" fill="none" fill-rule="evenodd">
        <g id="logo_trust_main" fill="#FFFFFF" fill-rule="nonzero">
            <g id="Group-40-Copy-4">
                <path d="M19.9542436,20.0392656 L22.2558457,20.0392656 L22.2558457,8.85576663 L11.1260903,8.85576663 L11.1260903,20.0392656 L13.4477898,20.0392656 L13.4449026,23.7676378 L8.35232923,23.7676378 C7.8375784,23.7676378 7.4202904,23.3503498 7.4202904,22.835599 L7.4202904,6.05879682 C7.4202904,5.54404598 7.8375784,5.12675798 8.35232923,5.12675798 L25.0466613,5.1262129 C25.5614121,5.1262129 25.9787001,5.5435009 25.9787001,6.05825173 C25.9787001,6.05843348 25.9787001,6.05861523 25.9787,6.05879698 L25.967795,22.8355988 C25.967494,23.3501367 25.5502942,23.7670924 25.0357563,23.7670924 L19.9542436,23.7676378 L19.9542436,20.0392656 Z" id="Path-44-Copy" transform="translate(16.699495, 14.446925) rotate(180.000000) translate(-16.699495, -14.446925) "></path>
                <path d="M12.5339532,14.9130553 L14.8355554,14.9130553 L14.8355554,3.72955638 L3.70579993,3.72955638 L3.70579993,14.9130553 L6.02749943,14.9130553 L6.02461221,18.6414275 L0.932038835,18.6414275 C0.417288,18.6414275 -1.59005809e-16,18.2241395 -2.22044605e-16,17.7093887 L0,0.932586565 C-6.30387962e-17,0.41783573 0.417288,0.000547730161 0.932038835,0.000547730161 L17.6263709,2.64526523e-06 C18.1411218,2.64526523e-06 18.5584098,0.417290645 18.5584098,0.93204148 C18.5584098,0.932223228 18.5584097,0.932404976 18.5584096,0.932586725 L18.5475047,17.7093885 C18.5472036,18.2239264 18.1300039,18.6408821 17.615466,18.6408821 L12.5339532,18.6414275 L12.5339532,14.9130553 Z" id="Path-44-Copy-2"></path>
            </g>
            <g id="logo_trust-copy-3" transform="translate(33.391304, 2.563107)">
                <path d="M28.9573522,4.69399715 C28.9573522,1.70687221 30.3928403,3.55271368e-15 33.185265,3.55271368e-15 C35.9776898,3.55271368e-15 37.4131778,1.70687221 37.4131778,4.69399715 C37.4131778,5.01810178 37.1567306,5.2806975 36.8402148,5.2806975 L34.6989194,5.2806975 L34.6989194,4.50710469 C34.6989194,3.17382025 34.1769762,2.66716033 33.2634313,2.66716033 C32.350079,2.66716033 31.8283283,3.17382025 31.8283283,4.50710469 C31.8283283,5.86739786 32.402254,6.88111199 34.2813264,8.56136977 C36.6823419,10.7214759 37.4391691,12.2684644 37.4391691,14.4021532 C37.4391691,17.3892781 35.9776898,19.0961503 33.1592737,19.0961503 C30.3406652,19.0961503 28.8791859,17.3892781 28.8791859,14.4021532 L28.8791859,13.2553669 L30.8812836,13.2553669 C31.2744255,13.2553669 31.5932518,13.5818373 31.5932518,13.9846023 L31.5932518,14.5888485 C31.5932518,15.9223301 32.1675625,16.4023756 33.0809149,16.4023756 C33.9944598,16.4023756 34.5683855,15.9223301 34.5683855,14.5888485 C34.5683855,13.2287525 33.9944598,12.2150384 32.1151949,10.5347806 C29.7143719,8.37467446 28.9573522,6.82768598 28.9573522,4.69399715 Z M37.7354695,0.197143937 L45.8965349,0.197143937 C46.2898694,0.197143937 46.6086957,0.523614298 46.6086957,0.926379361 L46.6086957,2.86410712 L43.6073781,2.86410712 L43.6073781,18.8664777 L40.7365945,18.8664777 L40.7365945,3.59334255 C40.7365945,3.19057748 40.4177683,2.86410712 40.0244338,2.86410712 L37.7354695,2.86410712 L37.7354695,0.197143937 Z M25.0987079,0.197143937 L27.1008056,0.197143937 C27.4941401,0.197143937 27.8129663,0.523614298 27.8129663,0.926379361 L27.8129663,14.4126018 C27.8129663,17.3997268 26.351487,19.1067961 23.533071,19.1067961 C20.7144624,19.1067961 19.2527906,17.3997268 19.2527906,14.4126018 L19.2527906,0.197143937 L21.4114135,0.197143937 C21.804748,0.197143937 22.1235742,0.523614298 22.1235742,0.926379361 L22.1235742,14.5992971 C22.1235742,15.9329759 22.6978849,16.4128242 23.6112373,16.4128242 C24.5247822,16.4128242 25.0987079,15.9329759 25.0987079,14.5992971 L25.0987079,0.197143937 Z M9.62639529,0.197143937 L13.9586582,0.197143937 C16.933792,0.197143937 18.2125623,1.61066597 18.2125623,4.49093889 L18.2125623,5.95808407 C18.2125623,7.87826602 17.6122603,9.10509274 16.3334899,9.71860468 L16.3334899,9.77183354 C17.768978,10.3853455 18.2387461,11.7722531 18.2387461,13.7192466 L18.2387461,16.5997167 C18.2387461,17.5063816 18.2647374,18.1733196 18.5517965,18.8664777 L15.6288378,18.8664777 C15.4721201,18.3866293 15.36777,18.0932791 15.36777,16.5729051 L15.36777,13.6394033 C15.36777,11.9057195 14.7936518,11.265396 13.4888901,11.265396 L12.4969864,11.265396 L12.4969864,18.8664777 L9.62639529,18.8664777 L9.62639529,0.197143937 Z M12.4969864,2.86410712 L12.4969864,8.59843283 L13.6194241,8.59843283 C14.6893016,8.59843283 15.3417787,8.11838734 15.3417787,6.62482487 L15.3417787,4.78448621 C15.3417787,3.45100462 14.8981944,2.86410712 13.8802994,2.86410712 L12.4969864,2.86410712 Z M-1.21502808e-12,0.197143937 L8.1610654,0.197143937 C8.55439991,0.197143937 8.87322612,0.523614298 8.87322612,0.926379361 L8.87322612,2.86410712 L5.8719086,2.86410712 L5.8719086,18.8664777 L3.001125,18.8664777 L3.001125,3.59334255 C3.001125,3.19057748 2.68210626,2.86410712 2.28896427,2.86410712 L-1.21502808e-12,2.86410712 L-1.21502808e-12,0.197143937 Z" id="Combined-Shape"></path>
            </g>
        </g>
    </g>
</svg>